# xmcd
#
# Track frame offsets:
#	150
#	16280
#	34843
#	51645
#	69482
#	86796
#	100563
#	120289
#	133809
#	145629
#	161674
#	177408
#	195759
#	211526
#	235674
#
# Disc length: 3373
#
# Revision: 2
# Processed by: cddbd v1.5.1PL0 Copyright (c) Steve Scherf et al.
# Submitted via: VisiTrax 2.9.5.180 - For more info visit www.synapsa.com
# Normalized: r1:DSETVAR1
#
DISCID=c00d2b0f
DTITLE=Various Artist - CDX 298 August 2002
DYEAR=2002
DGENRE=Country
TTITLE0=Blackhawk - I Will
TTITLE1=Josh Turner - She'll Go On You
TTITLE2=Holly Lamar - These Are The Days
TTITLE3=Hometown News - Wheels
TTITLE4=Aaron Tippin - Where The Stars And Stripes And The Eagle Fly
TTITLE5=Confederate Railroad - White Trash With Money
TTITLE6=Jim Pilot - Ask A Woman
TTITLE7=Leland Martin - If I Had Long Legs (Like Alan Jackson)
TTITLE8=Doug Kershaw - On The Bayou
TTITLE9=Kristyn Smyth - Strong As An Oak
TTITLE10=Hal Bnum - The Promise
TTITLE11=Smokey River Boys - O Brother
TTITLE12=Marty raybon - The Love We Made (Is Missing You Tonight)
TTITLE13=Instrumental - Children of September
TTITLE14=Hometown News - Intro
EXTD=YEAR: 2002 ID3G: 2
EXTT0=
EXTT1=
EXTT2=
EXTT3=
EXTT4=
EXTT5=
EXTT6=
EXTT7=
EXTT8=
EXTT9=
EXTT10=
EXTT11=
EXTT12=
EXTT13=
EXTT14=
PLAYORDER=
